# xmcd CD database file
#
# Track frame offsets:
#	150
#	47616
#	83379
#	122640
#	149863
#	178537
#	211564
#
# Disc length: 3204 seconds
#
# Revision: 0
# Processed by: cddbd v1.5.1PL2 Copyright (c) Steve Scherf et al.
# Submitted via: CDex 1.50Beta5
#
DISCID=560c8207
DTITLE=Christoph Adams Trio feat. Ed Schuller and Ernst Bier - Pastime Paradise
DYEAR=2000
DGENRE=Jazz
TTITLE0=Memories of lost tomorrows
TTITLE1=Pastime paradise
TTITLE2=Apeiron
TTITLE3=(Sadness) Mother of beauty
TTITLE4=Angel´s theme
TTITLE5=Call "O"
TTITLE6=Meant to be
EXTD=YEAR: 2000
EXTT0=
EXTT1=
EXTT2=
EXTT3=
EXTT4=
EXTT5=
EXTT6=
PLAYORDER=
